<svg version="1.1" xmlns="http://www.w3.org/2000/svg" viewBox="0 0 1611.98046875 836.66015625" width="1611.98046875" height="836.66015625">
  <!-- svg-source:excalidraw -->
  
  <defs>
    <style>
      @font-face {
        font-family: "Virgil";
        src: url("https://excalidraw.com/FG_Virgil.woff2");
      }
      @font-face {
        font-family: "Cascadia";
        src: url("https://excalidraw.com/Cascadia.woff2");
      }
    </style>
  </defs>
  <rect x="0" y="0" width="1611.98046875" height="836.66015625" fill="#ffffff"></rect><g transform="translate(1384.09765625 576.51953125) rotate(0 94.91796875 67.92578125)"><path d="M-1.7842973414808512 -1.8169706221669912 C73.10061680372965 -0.7310818734007625, 142.53668413192355 2.482677727715418, 191.5832882579416 -1.6315634008497 M-0.9892281768843532 0.9666736153885722 C45.89192522522135 -0.9253942231066321, 90.99300069306192 -1.923825518263111, 190.372216087766 0.7037100521847606 M187.85372597537935 0.6674950364977121 C190.65359090915467 51.92283613975815, 190.51167636266496 101.02537000730081, 188.04693985544145 135.14626201428473 M190.41933594364673 -0.7737267287448049 C190.2937199910923 29.29303146338134, 190.1315110465332 59.46584110051481, 190.1578983189538 135.22225421946496 M190.16480494104326 134.61180909909308 C120.21975347128536 136.51265430790716, 49.12846748919836 138.96920794588857, -1.4472733084112406 134.52169218100607 M190.03167070169002 136.08894127886742 C116.02779877888896 135.0265801251145, 41.558363081979024 135.71671885254102, 0.04728404898196459 136.29989090841264 M0.11421055160462856 136.90909900702536 C-0.39242324866405376 105.63274063187927, -0.2808549765502537 72.43416584132791, 1.2592791374772787 -1.336754834279418 M0.1957070054486394 136.82442251127213 C1.3061085209942394 84.6933355307854, 0.18814815736775925 34.63405927264975, -0.9349380014464259 -0.3922678204253316" stroke="#000000" stroke-width="1" fill="none"></path></g><g transform="translate(1379.94140625 690.80859375) rotate(0 94.91796875 67.92578125)"><path d="M-1.8169706221669912 1.011097377166152 C63.20498283368143 0.05126407179042869, 130.94223208115582 3.4409695509354785, 188.2043740991503 -1.1969224158674479 M0.9666736153885722 0.3020884217694402 C50.96785915970031 1.691237669760667, 100.8270797915975 2.414189171368562, 190.53964755218476 0.7879290105774999 M190.5034325364977 0.6529067810624838 C190.03318205477038 42.91392726549457, 187.6761084497098 83.01687241728506, 189.13063701428473 134.29181653819978 M189.0622107712552 -0.5629232404753566 C188.80987751610627 50.23739388064205, 188.82191470392098 102.24701295030683, 189.20662921946496 136.51155279297382 M188.59618409909308 135.71514732204378 C124.5573124159353 134.41578448563357, 62.632296094716 134.71644348650713, -1.329870318993926 137.68139434419572 M190.07331627886742 136.36259720940143 C134.8170432496241 136.58390690143096, 80.33183021030999 136.27041850740898, 0.4483284084126353 135.11216498631984 M1.057536507025361 136.19629312120378 C-0.4213862625492766 88.18085394463924, -2.9093230573071196 40.856826740120596, -1.336754834279418 1.5073944982141256 M0.9728600112721324 136.77716661710292 C0.0331669129286456 98.70878154238963, 0.9684542991076159 61.01577507637994, -0.3922678204253316 0.8400402488186955" stroke="#000000" stroke-width="1" fill="none"></path></g><g><g transform="translate(589.0249677988858 762.1395415101201) rotate(0 399.8761795051225 -63.31423573331915)"><path d="M1.1107249405235053 -0.19639598987996587 C134.32452390698143 -21.190238639898617, 666.5983390121435 -103.79630752746024, 799.5176422052859 -124.79562388658533 M0.23471680495888014 -1.3451078299060464 C133.24974784114758 -22.15571250647308, 664.9988926303287 -105.80260410860188, 798.4484123063489 -126.43207547675827" stroke="#000000" stroke-width="1" fill="none"></path></g><g transform="translate(589.0249677988858 762.1395415101201) rotate(0 399.8761795051225 -63.31423573331915)"><path d="M771.850614568924 -112.33016141859396 C781.9755275936989 -118.68798688591154, 788.043016679406 -119.76753178088377, 797.6141137608543 -126.85716505024591 M773.1230199018097 -112.05233769381 C780.99282355269 -116.78473011570269, 788.7533856523706 -120.49194640674769, 798.1813497438311 -125.80903077453384" stroke="#000000" stroke-width="1" fill="none"></path></g><g transform="translate(589.0249677988858 762.1395415101201) rotate(0 399.8761795051225 -63.31423573331915)"><path d="M768.6849132084814 -132.6057215164638 C780.0187444509822 -132.51337390149308, 787.097898938162 -127.11344385204953, 797.6141137608543 -126.85716505024591 M769.957318541367 -132.32789779167985 C778.9917330452605 -130.45008983676422, 787.7813377407961 -127.5665344093398, 798.1813497438311 -125.80903077453384" stroke="#000000" stroke-width="1" fill="none"></path></g></g><g><g transform="translate(558.7627343338991 768.80859375) rotate(0 416.07959463820407 19.667102666134042)"><path d="M-0.5672403182834387 0.3425961401313544 C137.94752199363458 7.1361061047141785, 691.9965497574085 33.363096714826945, 830.5088779110013 39.85735016390684 M1.3358197852782907 -0.5231448316387832 C140.2708837294814 6.0004571678799925, 694.1314830477968 31.20795705497888, 832.7264295946916 38.07467358315366" stroke="#000000" stroke-width="1" fill="none"></path></g><g transform="translate(558.7627343338991 768.80859375) rotate(0 416.07959463820407 19.667102666134042)"><path d="M804.6537873156792 45.423779936994734 C812.4383751404107 43.310846128278826, 818.7323603458453 42.329365202116975, 832.1598380580654 36.134609098900135 M803.2425306531093 46.65342102341664 C810.6107227640247 44.61550386849902, 819.2311260861219 41.64535327971896, 833.1288305679445 38.372053476404425" stroke="#000000" stroke-width="1" fill="none"></path></g><g transform="translate(558.7627343338991 768.80859375) rotate(0 416.07959463820407 19.667102666134042)"><path d="M805.6223343055448 24.925440513659417 C813.0087753764113 27.967196494353686, 819.0589850496851 32.144983681792034, 832.1598380580654 36.134609098900135 M804.2110776429748 26.155081600081324 C811.1641432979094 29.3994898396841, 819.5352774635444 31.704874491212436, 833.1288305679445 38.372053476404425" stroke="#000000" stroke-width="1" fill="none"></path></g></g><g><g transform="translate(584.3203125 755.4626296580516) rotate(0 404.4360655648169 -105.50661615007857)"><path d="M-0.15516428612172595 0.4647446181625128 C134.84373671803624 -34.390484379276394, 675.6300100924448 -174.6108311327535, 810.5678953953088 -209.9549772902266 M-1.6957642656750977 -0.3368684026412665 C133.17250067049636 -35.42573517585895, 675.0369574902394 -176.44299219084786, 810.0857681760751 -211.47797691831968" stroke="#000000" stroke-width="1" fill="none"></path></g><g transform="translate(584.3203125 755.4626296580516) rotate(0 404.4360655648169 -105.50661615007857)"><path d="M786.1569272449417 -192.97708320259122 C795.9962713512577 -200.6928267291334, 801.8480250038 -206.07887363117328, 809.1826020254009 -212.21123611378155 M786.3489206984816 -195.26108737769542 C794.6487893493452 -200.40241860505733, 802.9140664801491 -206.38799941478896, 810.8066701747664 -210.8175980924689" stroke="#000000" stroke-width="1" fill="none"></path></g><g transform="translate(584.3203125 755.4626296580516) rotate(0 404.4360655648169 -105.50661615007857)"><path d="M780.9950339915765 -212.8384744032776 C792.4937512455971 -213.6382795468185, 800.1411939412319 -212.11506257820452, 809.1826020254009 -212.21123611378155 M781.1870274451164 -215.1224785783818 C791.1680627106186 -213.4999033859394, 801.2000948148751 -212.68754980200214, 810.8066701747664 -210.8175980924689" stroke="#000000" stroke-width="1" fill="none"></path></g></g><g transform="translate(888.078125 479.49609375) rotate(0 26.5 11.5)"><text x="0" y="18" font-family="Helvetica, Segoe UI Emoji" font-size="20px" fill="#000000" text-anchor="start" style="white-space: pre;" direction="ltr">cache</text></g><g transform="translate(821.01953125 524.51953125) rotate(0 95.458984375 56.41796875)"><path d="M-0.9549009148031473 1.9779415372759104 C39.70015807316486 -2.364440172014838, 76.32549866208501 0.04268452614724083, 192.5913479384035 -0.31319657526910305 M-0.9906530557200313 0.18634733837097883 C72.56233723853984 -0.5562085090577966, 146.6300799208002 0.3666372419893378, 191.45536400098354 0.606160226278007 M190.44914222322404 1.2747259978204966 C192.12443662114217 33.09235503050659, 190.68829638190343 66.56949372200616, 190.53506965003908 113.91348328627646 M191.35028506536037 0.34085876028984785 C189.83237779705428 23.990636520507543, 189.64819905726813 47.26560024721694, 191.4946177424863 112.25945380609483 M190.5689045842737 111.159593725577 C124.2446209895952 110.96679762492477, 56.18932505055636 110.67714116463958, -0.9696129504591227 112.64920588769019 M191.1261034430936 113.7057078210637 C150.76051676055613 110.96941167102432, 109.6323997511754 111.20393535481071, -0.911588835529983 113.5312576321885 M-0.335420960560441 113.73075028695166 C1.3645729229388963 79.81115212937657, -0.9663999273838271 49.84806070092745, 1.3824148830026388 -1.4511825796216726 M0.3653970481827855 112.9168503312394 C0.7247244020168 67.6074275393963, 1.6462566455070191 23.949496866388643, 0.7624095501378179 0.27139470260590315" stroke="#000000" stroke-width="1" fill="none"></path></g><g transform="translate(1058.953125 10) rotate(0 268.5 161)"><text x="0" y="18" font-family="Helvetica, Segoe UI Emoji" font-size="20px" fill="#000000" text-anchor="start" style="white-space: pre;" direction="ltr">search posts (friends or any public pages, textual posts only)</text><text x="0" y="41" font-family="Helvetica, Segoe UI Emoji" font-size="20px" fill="#000000" text-anchor="start" style="white-space: pre;" direction="ltr">P1: good morning</text><text x="0" y="64" font-family="Helvetica, Segoe UI Emoji" font-size="20px" fill="#000000" text-anchor="start" style="white-space: pre;" direction="ltr">P2: I am good</text><text x="0" y="87" font-family="Helvetica, Segoe UI Emoji" font-size="20px" fill="#000000" text-anchor="start" style="white-space: pre;" direction="ltr">P3: good that I have job</text><text x="0" y="110" font-family="Helvetica, Segoe UI Emoji" font-size="20px" fill="#000000" text-anchor="start" style="white-space: pre;" direction="ltr">query: 'good job'</text><text x="0" y="133" font-family="Helvetica, Segoe UI Emoji" font-size="20px" fill="#000000" text-anchor="start" style="white-space: pre;" direction="ltr"></text><text x="0" y="156" font-family="Helvetica, Segoe UI Emoji" font-size="20px" fill="#000000" text-anchor="start" style="white-space: pre;" direction="ltr">key words search (return exact match)</text><text x="0" y="179" font-family="Helvetica, Segoe UI Emoji" font-size="20px" fill="#000000" text-anchor="start" style="white-space: pre;" direction="ltr">english</text><text x="0" y="202" font-family="Helvetica, Segoe UI Emoji" font-size="20px" fill="#000000" text-anchor="start" style="white-space: pre;" direction="ltr">US</text><text x="0" y="225" font-family="Helvetica, Segoe UI Emoji" font-size="20px" fill="#000000" text-anchor="start" style="white-space: pre;" direction="ltr"></text><text x="0" y="248" font-family="Helvetica, Segoe UI Emoji" font-size="20px" fill="#000000" text-anchor="start" style="white-space: pre;" direction="ltr">500MM post/day</text><text x="0" y="271" font-family="Helvetica, Segoe UI Emoji" font-size="20px" fill="#000000" text-anchor="start" style="white-space: pre;" direction="ltr">500MM queries/day</text><text x="0" y="294" font-family="Helvetica, Segoe UI Emoji" font-size="20px" fill="#000000" text-anchor="start" style="white-space: pre;" direction="ltr"></text><text x="0" y="317" font-family="Helvetica, Segoe UI Emoji" font-size="20px" fill="#000000" text-anchor="start" style="white-space: pre;" direction="ltr"></text></g><g transform="translate(405 123.171875) rotate(0 225 57.5)"><text x="0" y="18" font-family="Helvetica, Segoe UI Emoji" font-size="20px" fill="#000000" text-anchor="start" style="white-space: pre;" direction="ltr">#estimate size</text><text x="0" y="41" font-family="Helvetica, Segoe UI Emoji" font-size="20px" fill="#000000" text-anchor="start" style="white-space: pre;" direction="ltr">500MM/day*365*20years = 4000B*300k = 1200PB</text><text x="0" y="64" font-family="Helvetica, Segoe UI Emoji" font-size="20px" fill="#000000" text-anchor="start" style="white-space: pre;" direction="ltr">500MM/day/3600/24 = 500MM/100k = 5000 QPS </text><text x="0" y="87" font-family="Helvetica, Segoe UI Emoji" font-size="20px" fill="#000000" text-anchor="start" style="white-space: pre;" direction="ltr"></text><text x="0" y="110" font-family="Helvetica, Segoe UI Emoji" font-size="20px" fill="#000000" text-anchor="start" style="white-space: pre;" direction="ltr"></text></g><g transform="translate(1398.19921875 502.70703125) rotate(0 94.91796875 67.92578125)"><path d="M-1.5982375089079142 -0.5227924939244986 C57.573361501574254 -1.1197202841692342, 114.74325724972732 1.2573655803746806, 190.3112906869501 1.7736872676759958 M-0.3495339034125209 -0.3510516257956624 C73.07608176847062 -2.381717731005119, 145.43261804124487 -2.0746966793598403, 190.10351840872318 0.3980449764057994 M191.66476673446596 -0.5840230938047171 C191.2264322397863 40.97567644920855, 190.1694214103376 83.15612832681654, 188.6790980156511 134.052813494578 M189.48875777143985 -0.7126773269847035 C189.81981913015778 44.29391487588218, 188.50587487981255 89.63208342610014, 189.08266110438854 136.44666993897408 M187.93175924383104 135.26295896805823 C124.21859240507547 138.2010011872916, 60.6422721086783 137.79622288557576, -1.974558049812913 133.95993998087943 M189.38586158771068 136.2372003821656 C117.87447829032243 133.51661113996764, 46.75306100398154 134.46398444075842, -0.25093557219952345 134.9405568568036 M-0.4452702347189188 134.2120623830706 C-0.4414388524885726 84.61944962250345, -1.911714910208757 32.667242516843544, 0.7706716116517782 1.0893660429865122 M0.7775990786030889 135.33668574970216 C1.643170549729184 90.45636844683395, 1.673645778754071 43.416355518660566, -0.2221922753378749 0.556677165441215" stroke="#000000" stroke-width="1" fill="none"></path></g><g transform="translate(1432.98046875 453.80078125) rotate(0 84.5 11.5)"><text x="0" y="18" font-family="Helvetica, Segoe UI Emoji" font-size="20px" fill="#000000" text-anchor="start" style="white-space: pre;" direction="ltr">postDB (key:value)</text></g><g transform="translate(867.58984375 379.25390625) rotate(0 89.25 70.306640625)"><path d="M-0.5886035319417715 -0.4810903612524271 C51.51816861438566 2.778323169653304, 101.34438694296406 -0.27507895618211475, 176.60837748087943 1.4893795307725668 M0.3856378821656108 -0.8737899838015437 C69.24971147463657 -0.10415254082996406, 140.16310433438048 0.5524499312369152, 177.5889943568036 0.8465972663834691 M176.8604998830706 -0.31014429964125156 C178.37090043472216 41.76252946097775, 178.67531822370455 87.85657124833016, 179.5893660429865 141.40154225192964 M177.98512324970216 0.38438637275248766 C180.16256929115943 29.56978909638456, 179.2323495514839 58.0876627138765, 179.05667716544122 139.9767342628911 M176.9669614676386 139.31028563342988 C137.60771552887746 139.51969872876535, 99.19460034267976 139.66094153090845, -1.3923433776944876 138.80609655939043 M179.0830627111718 139.6334122242406 C113.30614626980386 139.93866948519369, 46.452511498052615 140.16308010850568, 0.3499319879338145 140.18027080316097 M-0.6964038368314505 140.50367355905473 C1.1585440518581527 96.95788241963928, 1.1812197448932784 51.20482161164473, -1.9416702147573233 1.6370634492486715 M-0.3984551103785634 140.78664816636592 C-0.3486515261078238 106.88412719147999, -1.8387753642940878 74.14421627061019, -0.03591036517173052 0.5707627953961492" stroke="#000000" stroke-width="1" fill="none"></path></g><g transform="translate(861.7265625 313.640625) rotate(0 118 11.5)"><text x="0" y="18" font-family="Helvetica, Segoe UI Emoji" font-size="20px" fill="#000000" text-anchor="start" style="white-space: pre;" direction="ltr">application server (search)</text></g><g transform="translate(343.03515625 352.95703125) rotate(0 97.349609375 74.33984375)"><path d="M-0.5525263492017984 1.0005976799875498 C76.01957904873089 2.580152895524261, 152.91383372339698 0.8753791714451291, 196.1426807101816 1.3522799257189035 M0.3637011768296361 0.21950674336403608 C57.28808405085911 2.0576881087084984, 114.11329719374845 1.7569267964621758, 193.807062250562 0.7136156288906932 M194.17935377918184 1.5979936365038157 C195.16871284742876 57.78285969042554, 193.54274373550936 117.20798491487949, 194.74852896295488 148.9329770449549 M195.5950878681615 0.49820277374237776 C194.11841665721346 34.32152420177954, 194.2039723000567 67.92545762169902, 195.5378815056756 147.7695667175576 M194.54278565011919 149.49752315320075 C146.60666659700547 147.67836245057023, 97.01405912531263 146.50446870085634, 0.9643835481256247 148.4379390720278 M194.54123152513057 148.47835582774132 C149.8107446385922 150.95015793625706, 106.68622718106998 151.23298617784374, -0.7962969122454524 148.631436499767 M-0.2625847402960062 149.4516886714846 C1.5073121875381184 89.1677925375443, -0.4813850432777691 35.13599639444874, 0.40981233678758144 -1.948690926656127 M-0.9421244440600276 149.39064827840775 C0.768366690330804 114.17356956551885, 0.7922138828566676 78.06223712185601, 0.31359071750193834 -0.6624754639342427" stroke="#000000" stroke-width="1" fill="none"></path></g><g transform="translate(374 292.171875) rotate(0 49 11.5)"><text x="0" y="18" font-family="Helvetica, Segoe UI Emoji" font-size="20px" fill="#000000" text-anchor="start" style="white-space: pre;" direction="ltr">web server</text></g><g transform="translate(196.81640625 408.12109375) rotate(0 35.638671875 28.421875)"><path d="M23.65746662228269 2.108804983075835 C30.506627924693777 -0.032030676808231906, 42.25706247890826 0.6494693153966802, 49.606971145250725 2.7482716645109484 C56.95687981159319 4.847074013625217, 64.20615507446648 9.6125780856343, 67.75691862033747 14.701619077761444 C71.30768216620847 19.790660069888588, 72.58181621801333 27.222607742282996, 70.91155242047668 33.28251761727381 C69.24128862294003 39.342427492264626, 63.53269634488745 47.13261196351617, 57.73533583511754 51.06107832770634 C51.93797532534763 54.98954469189651, 43.72635474551327 57.169351728162, 36.127389361857226 56.853315802414826 C28.52842397820118 56.537279876667654, 18.214759759290118 53.23149526784693, 12.14154353318126 49.164862773223305 C6.068327307072402 45.09823027859968, 0.8318695527964728 38.383729302725385, -0.31190799479591647 32.45352083467307 C-1.4556855423883057 26.52331236662076, 1.2173410000361402 18.801971727769697, 5.278878247626924 13.583611964909446 C9.340415495217709 8.365252202049195, 20.491701008137905 3.282701104782153, 24.057315490748785 1.1433622575115656 C27.622929973359664 -0.9959765897590218, 26.172657658092326 0.6950954537445421, 26.672565143292196 0.7475788812859214 C27.172472628492066 0.8000623088273008, 26.923280074600058 0.9504439121029714, 27.056760401948015 1.458262822759842 M21.343119082648453 3.284133811496954 C27.54024584509931 0.2757800815877314, 37.83356704032009 -0.31901360402553114, 45.0297091074351 1.048123821948554 C52.225851174550115 2.415261247922639, 60.28680169189713 6.710394550285753, 64.51997148533853 11.486958367341465 C68.75314127877992 16.26352218439718, 70.80079224794964 23.481717492509226, 70.42872786808348 29.707506724282826 C70.05666348821732 35.933295956056426, 67.46569034677043 44.22611046688713, 62.28758520614157 48.84169375798307 C57.10948006551271 53.45727704907902, 47.00100010516403 56.71510472299664, 39.360097024310335 57.401006470858476 C31.71919394345664 58.08690821872031, 22.568919209280647 56.29120971290828, 16.442166721019404 52.957104245154056 C10.315414232758162 49.622998777399836, 5.0100402770383194 43.40810619034145, 2.5995820947428854 37.39637366433315 C0.18912391244745086 31.384641138324845, -0.592159938926244 22.455500667445794, 1.9794176272467965 16.886709089104237 C4.550995193419837 11.31791751076268, 15.220198997720415 6.53055555135637, 18.029047491781128 3.9836241942838058 C20.83789598584184 1.436692837211241, 18.237033814423327 1.9553305013253102, 18.832508591611077 1.6051209466688476 C19.427983368798827 1.254911392012385, 21.24344922470082 1.4821171601598693, 21.601896154907635 1.8823668663450306" stroke="#000000" stroke-width="1" fill="none"></path></g><g transform="translate(215 374.171875) rotate(0 19.5 11.5)"><text x="0" y="18" font-family="Helvetica, Segoe UI Emoji" font-size="20px" fill="#000000" text-anchor="start" style="white-space: pre;" direction="ltr">user</text></g><g transform="translate(1375 414.171875) rotate(0 76.5 11.5)"><text x="0" y="18" font-family="Helvetica, Segoe UI Emoji" font-size="20px" fill="#000000" text-anchor="start" style="white-space: pre;" direction="ltr">trie speed search</text></g><g transform="translate(442.48388671875 746.391357421875) rotate(0 69.5 11.5)"><text x="0" y="18" font-family="Helvetica, Segoe UI Emoji" font-size="20px" fill="#000000" text-anchor="start" style="white-space: pre;" direction="ltr"> [100, 101, 102]</text></g><g transform="translate(181.392578125 674.8828125) rotate(0 97.349609375 74.33984375)"><path d="M0.37856835685670376 1.873153829947114 C59.57113298527802 -1.4168662046521423, 119.37838839433898 -3.022867879781079, 193.64553177915514 1.4762303475290537 M-0.4066123543307185 0.41504410188645124 C50.38919512422035 -0.4431202926914921, 100.29649571342816 -0.6192716577332249, 194.40246660728008 -0.5226812334731221 M194.57611048780382 1.4410755280405283 C194.1576080697476 39.0329851161303, 194.92130074676862 78.70444830834604, 196.51544291339815 147.63627889193594 M194.45704038161784 -0.1920201750472188 C195.4713977490653 56.333362448638226, 195.46913238513363 113.65183875365912, 195.11391006130725 148.2439756123349 M192.7831950839609 148.30130412615836 C140.18446400739813 150.41309907737622, 87.46006726616251 148.745814290675, -1.601258272305131 150.3416250590235 M194.0666695656255 148.89800855796784 C142.82389872772873 149.17736106540866, 88.99736953564496 148.2783417346687, 0.6382550122216344 147.88738245051354 M0.7092337664216757 148.10282644070685 C-1.8692680611581454 95.33328213849235, -1.0148122920961031 38.60435101071633, 0.4872617181390524 0.6103962901979685 M-0.9924892066046596 148.2331954864785 C0.41298418381637014 100.61259355498113, 1.1466788265985814 52.916860207162955, 0.18280736822634935 0.2944716541096568" stroke="#000000" stroke-width="1" fill="none"></path></g><g transform="translate(10 731.171875) rotate(0 62.5 11.5)"><text x="0" y="18" font-family="Helvetica, Segoe UI Emoji" font-size="20px" fill="#000000" text-anchor="start" style="white-space: pre;" direction="ltr">good -&gt; list_id</text></g><g><g transform="translate(134.77734375 729.62890625) rotate(0 152.2161492433399 12.346765885129571)"><path d="M-0.26452355124056337 -0.8163419332355261 C50.32096563043694 3.2674936963866155, 253.91284767252702 21.14773492751022, 304.69682203792036 25.50987370349467 M1.7974628550186753 1.3694746064767243 C52.1177129588897 5.597785439851384, 253.44047578477614 19.324341302675506, 303.72701048795136 23.556545149050653" stroke="#000000" stroke-width="1" fill="none"></path></g><g transform="translate(134.77734375 729.62890625) rotate(0 152.2161492433399 12.346765885129571)"><path d="M273.48531147734855 31.604119465734286 C286.8287393192073 28.00284779127789, 298.0867724049574 24.850631734527425, 305.26535821463915 25.1396600953117 M274.0919964368421 30.893799180212838 C282.06396687044094 30.034910205508965, 287.1176126869319 27.759756161544015, 304.28596008978786 22.61277539886534" stroke="#000000" stroke-width="1" fill="none"></path></g><g transform="translate(134.77734375 729.62890625) rotate(0 152.2161492433399 12.346765885129571)"><path d="M275.0249152858938 11.140746759883667 C287.9262668300672 15.693953039587633, 298.5705257021034 20.69960878255535, 305.26535821463915 25.1396600953117 M275.6316002453874 10.43042647436222 C283.27157364303076 14.23300575757317, 287.9756084616382 16.604644682062563, 304.28596008978786 22.61277539886534" stroke="#000000" stroke-width="1" fill="none"></path></g></g></svg>